<svg xmlns="http://www.w3.org/2000/svg" width="32" height="32"><g fill="none" fill-rule="evenodd"><path fill="#F9BB59" d="M20.21 29.112H7.385c-.765 0-1.386-.62-1.386-1.386V7.856h15.596v19.87c0 .765-.621 1.386-1.387 1.386"/><path fill="#ED7502" d="M6 7.802v20.241c0 .604.392 1.14.968 1.322l7.949 2.517a.693.693 0 00.902-.661V20.826c0-.39.38-.668.753-.55l.69.218a.577.577 0 00.752-.55V12.62c0-.604-.391-1.139-.967-1.321L6 7.802zM31.993 0s-1.04.347-2.195.462c-1.265.127-4.621.809-7.625 2.657-3.003 1.849-4.39 4.39-4.736 5.43-.347 1.04-.809 1.617-.809 1.617s1.155-.462 1.849-.578c.683-.113 5.083-.577 7.624-2.541 2.542-1.964 4.132-4.11 4.737-5.199C31.415.808 31.993 0 31.993 0M18.592 11.437s.578.115 1.27-.578c.694-.693 2.311-1.386 4.275-1.27 1.964.115 4.044 1.27 5.314 2.194.462.347.924.463.924.463s-1.04.23-1.732.693c-.694.462-2.195.924-3.697.924-1.502 0-3.581-.693-4.737-1.617-.577-.463-1.617-.81-1.617-.81"/><path fill="#ED7502" d="M21.596 7.856H6v19.87c0 .765.62 1.386 1.386 1.386H20.21c.766 0 1.387-.62 1.387-1.386V7.856zm-.347.346v19.524c0 .573-.466 1.04-1.04 1.04H7.386c-.573 0-1.04-.467-1.04-1.04V8.202H21.25z"/></g></svg>