<svg xmlns="http://www.w3.org/2000/svg" width="32" height="32" viewBox="0 0 32 32">
    <g fill="none" fill-rule="evenodd">
        <g>
            <path fill="#F9BB59" d="M14.21 29.112H1.385c-.765 0-1.386-.62-1.386-1.386V7.856h15.596v19.87c0 .765-.621 1.386-1.387 1.386" transform="translate(6)"/>
            <path fill="#ED7502" d="M0 7.802v20.241c0 .604.392 1.14.968 1.322l7.949 2.517c.447.141.902-.192.902-.661V20.826c0-.39.38-.668.753-.55l.69.218c.373.118.752-.16.752-.55V12.62c0-.604-.391-1.139-.967-1.321L0 7.802zM25.993 0s-1.04.347-2.195.462c-1.265.127-4.621.809-7.625 2.657-3.003 1.849-4.39 4.39-4.736 5.43-.347 1.04-.809 1.617-.809 1.617s1.155-.462 1.849-.578c.683-.113 5.083-.577 7.624-2.541 2.542-1.964 4.132-4.11 4.737-5.199C25.415.808 25.993 0 25.993 0M12.592 11.437s.578.115 1.27-.578c.694-.693 2.311-1.386 4.275-1.27 1.964.115 4.044 1.27 5.314 2.194.462.347.924.463.924.463s-1.04.23-1.732.693c-.694.462-2.195.924-3.697.924-1.502 0-3.581-.693-4.737-1.617-.577-.463-1.617-.81-1.617-.81" transform="translate(6)"/>
            <path fill="#ED7502" d="M15.596 7.856H0v19.87c0 .765.62 1.386 1.386 1.386H14.21c.766 0 1.387-.62 1.387-1.386V7.856zm-.347.346v19.524c0 .573-.466 1.04-1.04 1.04H1.386c-.573 0-1.04-.467-1.04-1.04V8.202H15.25z" transform="translate(6)"/>
        </g>
    </g>
</svg>
